<svg
  xmlns="http://www.w3.org/2000/svg"
  width="24"
  height="24"
  viewBox="0 0 24 24"
  fill="none"
  stroke="currentColor"
  stroke-width="2"
  stroke-linecap="round"
  stroke-linejoin="round"
  class="icon icon-location"
>
  <path d="M12 19.5c-.32 0-.62-.16-.81-.44l-4.82-7.08A6.52 6.52 0 0 1 5.2 8.2C5.2 4.78 8 2 12 2s6.8 2.78 6.8 6.2c0 1.38-.4 2.67-1.17 3.78l-4.82 7.08c-.19.28-.49.44-.81.44Z" />
  <circle cx="12" cy="8.2" r="2.55" />
  <path d="M6 19.6c1.14-1.04 3.3-1.7 6-1.7s4.86.66 6 1.7" />
  <path d="M4.8 20.9c1.48 1 4 1.6 7.2 1.6s5.72-.6 7.2-1.6" />
</svg>
